<svg height="15" viewBox="0 0 24 15" width="24" xmlns="http://www.w3.org/2000/svg"><path d="m691.6875 7.281248c-.1875-.1875-.421872-.281248-.703124-.281248s-.515624.093748-.703124.281248l-10.281252 11.281252-10.28125-11.281252c-.187501-.1875-.421874-.281248-.703125-.281248s-.515625.093748-.703125.281248c-.208334.208336-.3125.447916-.3125.718752s.104166.510416.3125.718752l10.9375 11.999998c.104168.1041672.218748.1822914.343748.234375.125004.0520836.260416.0677084.406252.046875.145836.0208334.281248.0052086.406252-.046875.125-.0520836.23958-.1302078.343748-.234375l10.9375-11.999998c.208336-.208336.3125-.447916.3125-.718752s-.104164-.510416-.3125-.718752z" fill="#F16A21" fill-rule="evenodd" transform="translate(-668 -6.5)"/></svg>